<svg xmlns:xlink="http://www.w3.org/1999/xlink" width="32" height="38.9" viewBox="0 0 23.865 29.013" xmlns="http://www.w3.org/2000/svg"><path d="M10.491 15.776c-.489-.044-.892-.11-1.296-.112-3.168-.009-5.216 3.433-3.634 6.167a4.211 4.211 0 0 0 4.7 1.982c1.81-.456 3.076-2.102 3.076-3.973V.739c0-.734.002-.735.721-.735.868 0 1.736.007 2.604-.004.29-.003.45.078.517.39.587 2.766 3.255 5.343 6.553 5.4.032 0 .064.022.133.047v6.012c-1.96-.218-3.703-.928-5.399-2.054-.01.248-.025.426-.026.604-.001 3.113.009 6.226-.003 9.338-.018 5.194-4.105 9.3-9.213 9.276C4.536 28.99.522 25.447.053 20.917c-.495-4.772 2.533-9.076 7.148-10.05.937-.198 1.933-.124 2.903-.142.127-.003.369.193.37.3.025 1.57.017 3.141.017 4.751" fill="#161616" fill-rule="evenodd"></path></svg>